<svg width="176.73mm" height="30mm" version="1.1" viewBox="0 0 176.73 30" xmlns="http://www.w3.org/2000/svg">
 <g transform="translate(-29.937 -47.094)">
  <path d="m44.829 47.094a15 15 0 0 0-14.892 15 15 15 0 0 0 0 0.10749v14.893h15a15 15 0 0 0 15.001-15.001 15 15 0 0 0-15.001-15 15 15 0 0 0-0.10749 0zm-5.3919 6.0002a4 4 0 0 1 3.9998 4.0003v9.9999a4 4 0 0 1-3.9998 3.9998 4 4 0 0 1-4.0003-3.9998v-9.9999a4 4 0 0 1 4.0003-4.0003zm9.9999 0a5 5 0 0 1 5.0002 4.9997 5 5 0 0 1-5.0002 5.0002 5 5 0 0 1-5.0002-5.0002 5 5 0 0 1 5.0002-4.9997z" fill="#59f"/>
  <flowRoot transform="matrix(.26458 0 0 .26458 20.6 5.0346)" font-family="sans-serif" font-size="40px" letter-spacing="0px" word-spacing="0px" style="line-height:1.25" xml:space="preserve"><flowRegion fill="#ffffff"><rect x="170.71" y="178.23" width="969.16" height="205.59" fill="#fff"/></flowRegion><flowPara fill="#000000" font-family="'Helvetica Neue'" font-size="64px" font-weight="bold">POLITE <flowSpan font-family="'Helvetica Neue'" font-weight="100">INVESTOR</flowSpan></flowPara></flowRoot>
 </g>
</svg>
