<?xml version="1.0" encoding="UTF-8" standalone="no"?>
<svg
   width="176.73398mm"
   height="30.000332mm"
   viewBox="0 0 176.73398 30.000332"
   version="1.1"
   id="svg8"
   inkscape:version="1.2 (dc2aedaf03, 2022-05-15)"
   sodipodi:docname="logo2.svg"
   xmlns:inkscape="http://www.inkscape.org/namespaces/inkscape"
   xmlns:sodipodi="http://sodipodi.sourceforge.net/DTD/sodipodi-0.dtd"
   xmlns="http://www.w3.org/2000/svg"
   xmlns:svg="http://www.w3.org/2000/svg"
   xmlns:rdf="http://www.w3.org/1999/02/22-rdf-syntax-ns#"
   xmlns:cc="http://creativecommons.org/ns#"
   xmlns:dc="http://purl.org/dc/elements/1.1/">
  <defs
     id="defs2" />
  <sodipodi:namedview
     id="base"
     pagecolor="#ffffff"
     bordercolor="#666666"
     borderopacity="1.0"
     inkscape:pageopacity="0.0"
     inkscape:pageshadow="2"
     inkscape:zoom="1.4"
     inkscape:cx="181.07143"
     inkscape:cy="142.14286"
     inkscape:document-units="mm"
     inkscape:current-layer="layer1"
     showgrid="false"
     showguides="false"
     fit-margin-top="1"
     fit-margin-left="1"
     fit-margin-right="1"
     fit-margin-bottom="1"
     inkscape:window-width="1920"
     inkscape:window-height="1009"
     inkscape:window-x="-8"
     inkscape:window-y="-8"
     inkscape:window-maximized="1"
     inkscape:document-rotation="0"
     inkscape:showpageshadow="2"
     inkscape:pagecheckerboard="0"
     inkscape:deskcolor="#d1d1d1">
    <inkscape:grid
       type="xygrid"
       id="grid3793"
       originx="10.317437"
       originy="-6.0556329" />
  </sodipodi:namedview>
  <metadata
     id="metadata5">
    <rdf:RDF>
      <cc:Work
         rdf:about="">
        <dc:format>image/svg+xml</dc:format>
        <dc:type
           rdf:resource="http://purl.org/dc/dcmitype/StillImage" />
      </cc:Work>
    </rdf:RDF>
  </metadata>
  <g
     inkscape:label="Layer 1"
     inkscape:groupmode="layer"
     id="layer1"
     transform="translate(-29.937027,-47.094361)">
    <path
       id="path835-2-1"
       style="fill:#5599ff;stroke:none;stroke-width:1.19998;stroke-linecap:round;stroke-linejoin:round"
       d="m 44.829237,47.094457 a 14.999833,14.999833 0 0 0 -14.892114,14.999601 14.999833,14.999833 0 0 0 0,0.107487 V 77.094693 H 44.936724 A 14.999833,14.999833 0 0 0 59.937359,62.094058 14.999833,14.999833 0 0 0 44.936724,47.094457 a 14.999833,14.999833 0 0 0 -0.107487,0 z m -5.391919,6.000151 a 4,4 0 0 1 3.999756,4.000272 v 9.999907 a 4,4 0 0 1 -3.999756,3.999755 4,4 0 0 1 -4.000272,-3.999755 V 57.09488 a 4,4 0 0 1 4.000272,-4.000272 z m 9.999907,0 a 5,5 0 0 1 5.000211,4.999694 5,5 0 0 1 -5.000211,5.000212 5,5 0 0 1 -5.000212,-5.000212 5,5 0 0 1 5.000212,-4.999694 z" />
    <flowRoot
       xml:space="preserve"
       id="flowRoot12"
       style="font-style:normal;font-weight:normal;font-size:40px;line-height:1.25;font-family:sans-serif;letter-spacing:0px;word-spacing:0px;fill:#ffffff;fill-opacity:1;stroke:none"
       transform="matrix(0.26458333,0,0,0.26458333,20.600482,5.034612)"><flowRegion
         id="flowRegion14"
         style="fill:#ffffff"><rect
           id="rect16"
           width="969.16199"
           height="205.59055"
           x="170.71428"
           y="178.23396"
           style="fill:#ffffff" /></flowRegion><flowPara
         id="flowPara18"
         style="font-style:normal;font-variant:normal;font-weight:bold;font-stretch:normal;font-size:64px;font-family:'Helvetica Neue';-inkscape-font-specification:'Helvetica Neue Bold';fill:#000000">POLITE <flowSpan
   style="font-style:normal;font-variant:normal;font-weight:100;font-stretch:normal;font-family:'Helvetica Neue';-inkscape-font-specification:'Helvetica Neue Thin'"
   id="flowSpan861">INVESTOR</flowSpan></flowPara></flowRoot>
  </g>
</svg>
